<svg width="64" height="64" viewBox="0 0 24 24" fill="none" xmlns="http://www.w3.org/2000/svg">
<path d="M16 4C18.2091 4 20 5.79086 20 8C20 10.2091 18.2091 12 16 12C13.7909 12 12 10.2091 12 8C12 5.79086 13.7909 4 16 4Z" fill="#F58C28"/>
<path d="M8 6C9.65685 6 11 7.34315 11 9C11 10.6569 9.65685 12 8 12C6.34315 12 5 10.6569 5 9C5 7.34315 6.34315 6 8 6Z" fill="#F58C28"/>
<path d="M8 13C12.4183 13 16 16.5817 16 21H0C0 16.5817 3.58172 13 8 13Z" fill="#F58C28"/>
<path d="M16 13C19.3137 13 22 15.6863 22 19C22 20.1046 21.1046 21 20 21H16V19C16 16.7909 17.7909 15 20 15C19.3137 15 18 13.6863 18 12C18 10.3431 19.3431 9 21 9C20.4477 9 20 8.55228 20 8C20 6.89543 20.8954 6 22 6V8C22 10.7614 19.7614 13 17 13H16Z" fill="#F58C28"/>
</svg>