<svg width="64" height="64" viewBox="0 0 24 24" fill="none" xmlns="http://www.w3.org/2000/svg">
<path d="M18 4L20 8H17L15 4H13L15 8H12L10 4H8L10 8H7L5 4H4C2.9 4 2 4.9 2 6V18C2 19.1 2.9 20 4 20H20C21.1 20 22 19.1 22 18V6C22 4.9 21.1 4 20 4H18Z" fill="#F58C28"/>
<path d="M7 12C7.55 12 8 11.55 8 11C8 10.45 7.55 10 7 10C6.45 10 6 10.45 6 11C6 11.55 6.45 12 7 12Z" fill="white"/>
<path d="M7 16C7.55 16 8 15.55 8 15C8 14.45 7.55 14 7 14C6.45 14 6 14.45 6 15C6 15.55 6.45 16 7 16Z" fill="white"/>
<path d="M11 12C11.55 12 12 11.55 12 11C12 10.45 11.55 10 11 10C10.45 10 10 10.45 10 11C10 11.55 10.45 12 11 12Z" fill="white"/>
<path d="M11 16C11.55 16 12 15.55 12 15C12 14.45 11.55 14 11 14C10.45 14 10 14.45 10 15C10 15.55 10.45 16 11 16Z" fill="white"/>
</svg>